<svg xmlns="http://www.w3.org/2000/svg" width="1200" height="630" viewBox="0 0 1200 630">
  <defs>
    <linearGradient id="bg" x1="0%" y1="0%" x2="100%" y2="100%">
      <stop offset="0%" style="stop-color:#0b1219"/>
      <stop offset="100%" style="stop-color:#1a2a3a"/>
    </linearGradient>
  </defs>
  <rect width="1200" height="630" fill="url(#bg)"/>
  
  <!-- Logo hexagon -->
  <g transform="translate(552, 180) scale(3)">
    <path d="M27.25 20V10a2.5 2.5 0 0 0-1.25-2.16l-8.75-5a2.5 2.5 0 0 0-2.5 0l-8.75 5A2.5 2.5 0 0 0 4.75 10v10a2.5 2.5 0 0 0 1.25 2.16l8.75 5a2.5 2.5 0 0 0 2.5 0l8.75-5A2.5 2.5 0 0 0 27.25 20z" stroke="#00d4aa" stroke-width="2.5" fill="none"/>
  </g>
  
  <!-- Title -->
  <text x="600" y="340" font-family="-apple-system, BlinkMacSystemFont, 'Segoe UI', Roboto, sans-serif" font-size="72" font-weight="bold" fill="#e8eef4" text-anchor="middle">ooo</text>
  
  <!-- Subtitle -->
  <text x="600" y="400" font-family="-apple-system, BlinkMacSystemFont, 'Segoe UI', Roboto, sans-serif" font-size="28" fill="#8ba3b8" text-anchor="middle">Real-Time State Management for Go</text>
  
  <!-- Features -->
  <text x="600" y="480" font-family="-apple-system, BlinkMacSystemFont, 'Segoe UI', Roboto, sans-serif" font-size="20" fill="#00d4aa" text-anchor="middle">WebSocket Subscriptions • REST API • Glob Patterns • Built-in Admin UI</text>
  
  <!-- GitHub -->
  <text x="600" y="560" font-family="-apple-system, BlinkMacSystemFont, 'Segoe UI', Roboto, sans-serif" font-size="18" fill="#6b8a9e" text-anchor="middle">github.com/benitogf/ooo</text>
</svg>
